<svg width="32" height="32" viewBox="0 0 32 32" fill="none" xmlns="http://www.w3.org/2000/svg">
<path d="M16.5196 22.0785C16.5196 21.1454 16.9864 20.966 17.8539 21.4684C19.4569 22.3656 21.1215 23.3346 21.1215 23.3346C21.1875 22.7962 21.6323 22.3656 22.5879 22.5809C23.4774 22.7962 24.477 23.0116 24.477 23.0116C24.477 23.0116 23.9442 21.7914 23.6976 21.2531C23.2528 20.2482 23.6756 19.7458 24.1203 19.6381C24.1203 19.6381 23.4994 19.2075 23.0987 18.9203C22.2312 18.3103 22.4337 17.7002 23.2748 17.3413C24.411 16.8389 25.8554 16.1929 25.8554 16.1929C25.3886 15.9058 24.8558 15.1521 25.4547 14.2908C26.0536 13.3936 26.9211 12.1734 26.9211 12.1734C26.9211 12.1734 25.3666 12.2093 24.3405 12.1734C23.3849 12.1734 23.1603 11.4198 23.1824 10.8815C23.1824 10.8815 21.6499 11.9581 20.5578 12.7118C19.6242 13.3577 18.8007 12.7476 18.9328 11.671C19.153 9.94839 19.3556 8.0867 19.3556 8.0867C18.7787 8.48147 17.8011 8.44558 17.3783 7.5125C16.7442 6.12184 16.0088 4.471 16.0088 4.471C16.0088 4.471 15.2734 6.12184 14.6525 7.51698C14.2077 8.45007 13.2301 8.48596 12.6752 8.09119C12.6752 8.09119 12.8734 9.95736 13.098 11.6755C13.2301 12.7521 12.3846 13.3622 11.473 12.7162C10.3853 11.9626 8.84844 10.886 8.84844 10.886C8.84844 11.4243 8.62385 12.1779 7.69027 12.1779C6.64661 12.2138 5.10973 12.1779 5.10973 12.1779C5.10973 12.1779 5.97725 13.3981 6.55413 14.2953C7.15303 15.1566 6.62018 15.9103 6.17541 16.1974C6.17541 16.1974 7.5978 16.8433 8.73394 17.3458C9.57945 17.7046 9.77761 18.3147 8.91009 18.9248C8.50936 19.2119 7.91046 19.6426 7.91046 19.6426C8.33321 19.7503 8.75596 20.2527 8.31119 21.2575C8.06458 21.7959 7.53174 23.0161 7.53174 23.0161C7.53174 23.0161 8.53137 22.8007 9.42091 22.5854C10.3985 22.3701 10.8433 22.8007 10.8873 23.339C10.8873 23.339 12.5563 22.3701 14.1549 21.4729C15.0224 20.9704 15.4892 21.1499 15.4892 22.083V24.3439C15.5112 25.6718 15.269 27.1028 14.7758 27.8923C8.64147 27.2104 3.54643 22.1906 3.52441 15.5918C3.52441 8.77755 9.10385 3.2553 15.9956 3.2553C22.8653 3.2553 28.4668 8.77755 28.4668 15.5918C28.4668 21.9394 23.5963 27.1387 17.3739 27.8205V29.5073C24.6884 28.8254 30.4 22.8366 30.4 15.5918C30.4176 7.83997 23.9662 1.59998 16.0088 1.59998C8.05137 1.59998 1.60001 7.83997 1.60001 15.5873C1.60001 22.3656 6.60257 28.0314 13.2257 29.2875C14.3354 29.5028 15.0488 29.6822 15.6477 30.4C16.3391 29.108 16.5152 26.3132 16.5152 24.7342C16.5196 24.7297 16.5196 22.7962 16.5196 22.0785Z" fill="#EE3424"/>
</svg>
