<svg width="33" height="32" viewBox="0 0 33 32" fill="none" xmlns="http://www.w3.org/2000/svg">
<path d="M30.5854 14.5969C29.6818 15.4949 27.7242 16.2657 26.7612 16.6266C25.4454 17.1209 24.8615 17.2958 24.1253 17.5355C23.292 17.8058 21.6251 18.3102 21.6251 18.3102C25.0782 19.3413 27.5118 19.6522 27.5118 19.6522C27.5118 19.6522 28.6455 19.3017 30.4415 18.3413C31.4141 17.847 31.8927 17.5142 32.2349 17.1961C32.3611 17.082 32.6871 16.7427 32.7681 16.3086C32.7734 16.2768 32.7891 16.1938 32.7891 16.1121C32.7891 16.1121 32.7891 16.0546 32.7838 16.0045C32.7819 15.947 32.7717 15.9084 32.7717 15.9084C32.7717 15.9084 32.7524 15.8054 32.7269 15.7332C32.7005 15.661 32.5893 15.438 32.4092 15.2932C32.2889 15.1954 32.081 14.9519 31.3278 14.6871C31.0718 14.5982 30.6573 14.5161 30.6573 14.5161L30.5854 14.5969Z" fill="url(#paint0_linear_2_1048)"/>
<path d="M32.7889 16.0892C32.7889 16.0892 32.7837 15.9931 32.7602 15.9117C32.7419 15.8391 32.7095 15.7698 32.6608 15.6969C32.602 15.6103 32.5225 15.5086 32.4052 15.3962C32.3166 15.3125 32.2195 15.2386 32.1024 15.1601C31.6314 14.8515 31.0233 14.6776 30.4852 14.6041C29.6513 14.4932 28.6947 14.5129 28.6042 14.5096C28.2966 14.5053 26.3089 14.5217 25.798 14.5308C23.5289 14.5776 20.7512 14.5838 20.0235 14.5838C12.5114 14.6181 9.24164 14.4563 5.60248 13.7266C2.50665 13.1117 0.789062 12.5275 0.789062 12.5275C3.51974 12.4331 19.4527 11.772 22.3592 11.6949C24.2622 11.6413 25.6133 11.6298 26.6944 11.6923C27.2488 11.7233 27.7647 11.7704 28.4126 11.8806C28.9935 11.98 29.5212 12.1486 29.8285 12.2627C30.4757 12.5024 31.0213 12.8489 31.291 13.2039C31.291 13.2039 31.3708 13.2856 31.479 13.4308C31.6003 13.5995 31.7412 13.8071 31.7889 13.8845C32.1829 14.4815 32.3699 14.8564 32.4349 14.9872C32.5052 15.1245 32.5673 15.267 32.6278 15.4066C32.687 15.5452 32.7111 15.6292 32.7301 15.6878C32.7716 15.8345 32.7818 15.9683 32.7837 15.9983L32.7889 16.0892Z" fill="#CE210F"/>
<defs>
<linearGradient id="paint0_linear_2_1048" x1="29.4342" y1="13.5063" x2="25.4015" y2="20.4912" gradientUnits="userSpaceOnUse">
<stop stop-color="#E6EBEF"/>
<stop offset="0.0764" stop-color="#BBCEE5"/>
<stop offset="0.1854" stop-color="#85A9D8"/>
<stop offset="0.2796" stop-color="#5D8FCF"/>
<stop offset="0.3543" stop-color="#457EC9"/>
<stop offset="0.4" stop-color="#3C78C7"/>
<stop offset="0.9" stop-color="#2E5C99"/>
</linearGradient>
</defs>
</svg>
