<svg width="32" height="32" viewBox="0 0 32 32" fill="none" xmlns="http://www.w3.org/2000/svg">
<path d="M8.40736 20.7454L6.55959 22.5932C7.81943 23.853 8.23938 24.4409 8.32337 25.0289C8.40736 24.9449 10.0872 23.5171 10.0872 23.0131C10.0872 22.2572 9.58321 22.0052 8.40736 20.7454ZM4.20789 17.4698H3.20001C3.20001 17.4698 4.20789 18.0577 4.20789 19.4016V23.937C4.20789 26.8766 6.64358 29.6483 9.58321 29.6483H12.0189C13.5307 29.6483 14.0347 29.3123 14.8746 28.4724L15.7984 27.5486C16.3024 26.9606 16.8903 26.5407 16.8903 24.9449V23.4331C16.8903 22.1732 16.1344 21.5853 15.7984 21.2493L14.9585 20.4094V23.4331C14.9585 23.4331 15.5465 24.105 15.8824 24.273C17.1423 25.2808 16.1344 27.0446 14.9585 27.0446H9.58321H9.49922C6.97954 26.9606 4.96379 24.8609 4.8798 22.3412V19.9055C4.8798 17.4698 4.20789 17.4698 4.20789 17.4698ZM12.1029 20.7454L10.2551 22.5932C11.515 23.853 11.9349 24.4409 12.0189 25.0289C12.1029 24.9449 13.7827 23.5171 13.7827 23.0131C13.7827 22.2572 13.2787 21.9213 12.1029 20.7454ZM15.8824 0L14.6226 1.25984C14.1186 1.76378 14.2866 2.77165 15.2945 3.77953V6.29921C15.2945 6.55118 15.0425 6.80315 15.0425 6.80315C15.0425 6.80315 13.5307 5.45932 12.1869 5.45932H10.1711C8.9113 5.45932 7.90342 6.63517 7.73545 6.71916C7.06353 7.39108 7.06353 8.65092 7.56747 9.23884L8.99529 10.6667C8.99529 10.6667 8.65933 8.39895 8.99529 6.88714C9.07928 6.55118 9.49922 6.13123 9.91917 6.13123L13.1948 8.65092L9.41524 12.5984C9.24726 12.7664 8.74332 13.1024 8.23938 13.1024C7.65145 13.1024 7.39949 12.7664 7.14752 12.4304V14.2782C7.14752 14.8661 7.98741 15.5381 8.74332 15.5381H13.7827C14.1186 15.5381 14.5386 15.4541 14.8746 15.1181L16.5543 13.4383C16.8063 13.1863 16.8903 12.8504 16.8903 12.4304V10.4987C16.8903 8.65092 15.4625 7.2231 15.4625 7.2231C15.4625 7.2231 15.7984 6.97113 15.7984 6.21522V4.28346C15.7984 4.28346 16.3864 4.87139 16.4704 5.12336L17.5622 4.0315C18.0662 3.52756 17.2263 2.60367 16.8903 2.18373C15.8824 1.09186 15.8824 0 15.8824 0ZM9.58321 13.2703C10.0871 13.0184 10.1711 12.8504 10.5911 12.3465L13.7827 8.98688C13.7827 8.98688 15.5465 10.8346 16.1344 11.8425C16.3864 12.3465 16.7223 13.2703 15.2105 13.2703H9.58321ZM5.29975 9.40682H4.37586C4.96379 9.74278 5.38374 10.7507 5.38374 11.3386V15.0341C5.38374 16.042 6.13965 19.6535 9.41524 19.6535H18.906V25.7008C18.906 26.7087 18.5701 27.2966 18.3181 27.5486L16.8903 28.8924H17.5622L20.1659 26.5407C20.6698 25.9528 21.2578 25.3648 21.2578 23.5171V19.6535L22.3496 18.5617L24.1974 16.7979C24.1974 18.3097 24.9533 18.9816 25.6252 18.9816C25.9986 18.9578 26.3533 18.81 26.6331 18.5617L28.3129 16.9659C29.0688 16.21 29.4887 13.8583 27.641 13.8583C26.4651 13.8583 25.1213 15.5381 25.0373 15.706C24.6173 15.4541 24.2814 14.8661 24.2814 14.8661V16.294C24.1134 16.5459 23.3575 17.1339 22.7696 17.1339H21.2578V15.706C21.2578 15.0341 21.5097 14.2782 21.8457 13.9423L23.2735 12.5984H22.6016L19.7459 15.2021C19.242 15.79 18.906 16.8819 18.906 17.1339H8.15539C6.81156 17.1339 5.97166 15.79 5.97166 14.6982V11.9265C5.97166 9.65879 5.38374 9.40682 5.29975 9.40682ZM27.053 17.4698C26.8011 17.4698 26.5491 17.3858 26.2131 17.1339C25.8772 16.8819 25.2892 16.042 25.2892 16.042C25.4572 15.874 25.9612 15.706 26.3811 15.706C26.7171 15.706 27.053 15.79 27.137 15.958C27.7249 16.7139 27.641 17.4698 27.053 17.4698ZM22.6016 0L19.7459 2.60367C19.578 2.77165 18.906 3.77953 18.906 4.95538V12.4304C18.906 12.9344 18.5701 13.6903 18.3181 13.9423L16.8903 15.2861H17.5622L20.2499 12.8504C20.5858 12.5144 21.2578 11.6745 21.2578 10.2467V3.10761C21.2578 2.01575 21.7617 1.42782 22.0137 1.17585L23.2735 0H22.6016ZM23.0215 19.1496V22.0892L24.0294 23.1811C24.8693 24.021 24.7853 25.6168 22.2656 28.0525C21.3696 29.0129 20.134 29.5855 18.8221 29.6483H14.2866L16.9743 32H18.8221C20.6698 32 22.3496 31.2441 23.4415 30.0682C24.4494 28.9764 25.0373 27.5486 24.9533 26.0367V22.1732C24.9533 20.8294 24.1134 20.0735 23.9454 19.9055C23.7774 19.9055 23.0215 19.1496 23.0215 19.1496Z" fill="#D71921"/>
</svg>
