<svg width="32" height="32" viewBox="0 0 32 32" fill="none" xmlns="http://www.w3.org/2000/svg">
<path fill-rule="evenodd" clip-rule="evenodd" d="M30.2063 22.3823L31.0385 21.9119H31.0499L31.7413 21.8895H32L28.882 25.5938H15.801C13.9021 25.6285 12.0145 25.5143 10.1396 25.2611C8.35741 24.9867 6.64617 24.4244 5.06428 23.5865C1.70017 21.8088 0.000381409 19.3433 0.000381409 16.2461C-0.011065 15.0991 0.235033 13.952 0.751267 12.8621C1.60631 11.0956 3.12983 9.60468 5.252 8.43411C6.52942 7.72281 7.91215 7.19521 9.3544 6.87485C9.89352 6.74827 10.4441 6.65642 10.9947 6.58809C11.9276 6.50408 12.8696 6.44583 13.8128 6.41782C14.4217 6.3999 15.0307 6.39542 15.6373 6.40438H24.2874L21.1808 10.0751H20.5833L20.6646 9.58115L20.6589 9.55427C20.6509 9.50498 20.6417 9.43553 20.2789 9.45569H13.0344C12.6166 9.45569 12.2 9.48594 11.7822 9.53747C11.6254 9.55763 11.4686 9.58003 11.3117 9.60468C8.81527 10.0628 7.0571 11.2558 5.8495 12.9999C5.24055 13.8949 4.91204 14.9377 4.91204 16.0165C4.92349 18.4024 6.0956 20.1454 8.52224 21.3843C10.1156 22.1874 12.5663 22.6008 15.777 22.6008L29.8424 22.566C29.9717 22.5201 30.0884 22.4518 30.2063 22.3823ZM27.8381 13.5622L24.791 17.2901H24.1581L24.2393 16.7625C24.2279 16.7054 24.1111 16.6135 23.7586 16.5788H5.27489L7.33754 13.5622H27.8381Z" fill="#BD8B13"/>
</svg>
