<svg width="32" height="32" viewBox="0 0 32 32" fill="none" xmlns="http://www.w3.org/2000/svg">
<path d="M32 16C32 7.136 24.864 0 16 0C7.168 0 0 7.136 0 16C0 24.832 7.168 32 16 32C24.864 32 32 24.832 32 16ZM30.848 16C30.848 24.16 24.192 30.848 16 30.848C7.84 30.848 1.152 24.1608 1.152 16C1.152 7.808 7.84 1.152 16 1.152C24.192 1.152 30.848 7.808 30.848 16ZM21.664 15.04C21.312 15.04 20.864 15.04 20.288 15.072L20.704 14.368H21.376C23.776 14.368 25.568 14.496 27.2 14.784L27.936 14.08C26.112 13.76 23.904 13.568 21.664 13.568H21.12L21.472 12.896H22.08C24.416 12.896 26.528 13.088 28.576 13.472L29.344 12.736C27.04 12.288 24.576 12.0648 21.92 12.0648C20.7875 12.0685 19.6558 12.1218 18.528 12.2248C17.248 14.976 15.2 16.5768 12.896 16.5448C12 16.512 10.8792 16.1288 9.44 15.36L8.096 14.592L8.512 14.208L11.616 15.552L12.288 15.04L6.016 12.192L5.056 12.928L2.816 12L2.848 12.928C5.856 14.304 7.104 15.072 10.272 17.344C14.4 20.288 18.08 21.888 23.2 22.912L24.544 21.632H24.224C20.832 21.632 17.792 20.512 16.032 18.624C17.504 17.728 19.3272 17.3128 21.856 17.3128C22.528 17.3128 23.488 17.376 24.384 17.472L25.152 16.736C23.9522 16.5897 22.7447 16.5149 21.536 16.512C20.7244 16.5107 19.913 16.5427 19.104 16.608L19.68 15.904C20.3619 15.8635 21.0449 15.8422 21.728 15.84C23.424 15.84 24.544 15.904 25.824 16.096L26.56 15.392C25.216 15.1688 23.36 15.04 21.664 15.04Z" fill="#FFAD00"/>
</svg>
