<svg width="32" height="32" viewBox="0 0 32 32" fill="none" xmlns="http://www.w3.org/2000/svg">
<path d="M24.8427 16.9581C24.8588 17.3372 24.8572 17.7083 24.8387 18.0753C21.1666 18.2231 17.6905 18.4424 17.6905 18.6921C17.6905 18.9419 21.0927 19.1556 24.7207 19.2993C24.658 19.7186 24.5729 20.1282 24.4749 20.533C20.8992 20.6768 17.5781 20.892 17.5781 21.1362C17.5781 21.3804 20.6759 21.5795 24.1079 21.7289C23.9519 22.1605 23.7728 22.5833 23.5713 22.9955C20.6245 23.1369 18.19 23.3265 18.19 23.5337C18.19 23.7248 20.3177 23.9047 22.9979 24.0397C22.8501 24.2895 22.691 24.5216 22.528 24.7537C22.3545 24.9995 22.1634 25.2476 21.9618 25.4878C20.2872 25.6147 19.1362 25.7601 19.1362 25.9151C19.1362 26.046 19.9602 26.1689 21.2309 26.2821C20.4881 27.0134 19.6552 27.6472 18.7523 28.168C18.0075 27.5147 17.3144 26.8047 16.6793 26.0444C15.8408 25.026 14.065 22.3377 13.6465 21.737C13.2281 21.1362 12.9566 20.9603 12.4667 21.1338C11.9336 21.3211 11.3786 21.4386 10.8154 21.4832C10.5816 21.4832 10.4523 21.3924 10.8451 21.235C11.989 20.7627 12.9403 19.9187 13.5453 18.8391C14.3999 17.1396 13.6465 14.7943 13.6465 14.7943C13.5389 15.4584 13.208 16.0659 12.7084 16.5164C12.8223 16.0087 12.8283 15.4828 12.726 14.9727C12.6238 14.4626 12.4156 13.9796 12.1149 13.5551L11.7936 15.0289C11.7936 15.0289 11.592 15.0184 11.0965 15.4305C10.7892 15.7035 10.5693 16.0611 10.4644 16.4585C10.8539 16.6192 11.3238 16.2248 11.3238 16.2248C10.8767 17.9967 10.1732 19.6938 9.23549 21.2623C8.84506 21.9782 8.22157 22.539 7.4685 22.8518C6.9376 23.0654 6.76494 22.8132 6.76494 22.8132C6.33834 22.4475 5.94537 22.0443 5.59072 21.6085C5.59072 21.6085 5.56257 21.5579 5.66136 21.5579C5.91757 21.5643 6.37942 21.1201 6.47821 20.937C6.59547 20.7274 6.58341 20.57 6.52478 20.5579C6.46615 20.5459 6.36417 20.7185 5.87103 21.0294C5.37788 21.3402 5.14814 21.1217 4.98349 20.9491C4.85659 20.8117 4.98352 20.6382 5.06383 20.529C5.13853 20.4366 7.76009 15.5493 14.6955 10.4138C23.7802 3.68647 29.5839 1.8697 29.9164 1.73958C30.1365 1.65445 30.4954 1.53959 30.5766 1.62232C30.6184 1.65495 30.6514 1.69758 30.6725 1.74628C30.6935 1.79498 30.702 1.84819 30.6971 1.90102C30.6874 2.00945 30.6288 2.06808 30.2071 2.25361C26.7872 3.87777 23.4881 5.74512 20.3353 7.84129C18.3721 8.84671 16.4809 9.98701 14.6754 11.254C14.4553 11.3913 14.6184 11.5889 14.7477 11.5054C19.5539 8.30873 25.1889 6.13535 31.4111 4.34909C31.7074 4.26396 31.8705 4.26395 31.9211 4.33142C31.9726 4.40424 32.0032 4.48981 32.0095 4.5788C32.0175 4.69445 31.9227 4.75228 31.6665 4.85509C24.9814 7.33743 20.0529 9.64494 16.8809 11.7776C16.8809 11.7776 16.55 11.9752 16.5484 12.2049C16.5484 12.2925 16.7259 12.3021 16.7259 12.3021C18.3121 12.3302 20.4317 12.425 21.4397 12.4812C21.4397 12.4812 21.2992 12.9936 20.3305 13.4049C19.6514 13.6455 18.9288 13.7383 18.2109 13.6771C18.1729 13.6738 18.1347 13.6818 18.1013 13.7004C18.0679 13.7189 18.0409 13.747 18.0236 13.781C18.0063 13.8151 17.9996 13.8535 18.0044 13.8914C18.0091 13.9293 18.0252 13.9649 18.0503 13.9936C18.1106 14.0739 19.5643 16.4152 24.8508 16.9517" fill="#4D002E"/>
<path d="M24.6395 15.1445C24.6395 15.2858 22.6637 15.4143 19.8478 15.5276C19.437 15.2983 19.0512 15.0267 18.6969 14.7172C22.1128 14.8377 24.6395 14.9871 24.6395 15.1445Z" fill="#62727D"/>
<path d="M22.6143 10.3887C21.2891 10.6248 19.9443 10.7324 18.5984 10.71C18.935 10.5148 19.2876 10.3132 19.6506 10.1157C20.6465 10.0938 21.6417 10.1859 22.6167 10.3903" fill="#62727D"/>
<path d="M4.99712 20.6198C3.90159 20.6311 2.94177 20.6375 2.19161 20.6375C1.11294 20.6375 0.2375 20.3066 0.2375 19.893C0.2375 19.4793 1.11294 19.1484 2.19161 19.1484C3.14738 19.1484 4.44051 19.1605 5.92638 19.1806C5.35371 20.0078 5.07744 20.5058 5.05335 20.5355C5.02925 20.5652 5.0172 20.5877 4.99712 20.6158" fill="#62727D"/>
<path d="M5.58343 21.6119C5.93807 22.0478 6.33104 22.451 6.75764 22.8167C6.75764 22.8167 6.93036 23.0689 7.46125 22.8552C8.07459 22.6104 8.6011 22.1885 8.97362 21.6432C10.4796 21.6649 12.0755 21.7 13.6465 21.737C13.7758 21.9249 14.0368 22.3171 14.3613 22.7974C9.98156 22.9098 5.22599 22.9781 2.78997 22.9781C1.77637 22.9781 0.953125 22.6617 0.953125 22.2801C0.953125 21.8986 1.77637 21.5766 2.78997 21.5766C3.5321 21.5766 4.48629 21.583 5.57941 21.5926C5.57843 21.5998 5.57843 21.6071 5.57941 21.6143" fill="#62727D"/>
<path d="M3.89057 25.2706C2.98941 25.2706 2.26094 24.9919 2.26094 24.6498C2.26094 24.3076 2.98941 24.0281 3.89057 24.0281C6.27197 24.0281 11.1561 24.1004 15.3382 24.2217C15.5398 24.5084 15.7398 24.7944 15.9317 25.0602C11.6259 25.1855 6.38763 25.2706 3.89057 25.2706Z" fill="#62727D"/>
<path d="M17.7791 27.2547C14.266 27.4105 8.22854 27.5133 5.71943 27.5133C5.01184 27.5133 4.43437 27.2909 4.43437 27.025C4.43437 26.7592 5.00862 26.5375 5.71943 26.5375C8.11931 26.5375 13.7512 26.6323 17.3132 26.7784C17.4739 26.9511 17.6297 27.1094 17.7791 27.2603" fill="#62727D"/>
<path d="M8.61607 28.575C10.685 28.575 16.9948 28.73 16.9948 28.9204C16.9948 29.1107 10.685 29.2657 8.61607 29.2657C8.21449 29.2657 7.88437 29.1123 7.88437 28.9204C7.88437 28.7284 8.21127 28.575 8.61607 28.575Z" fill="#62727D"/>
<path d="M8.6411 15.82C6.0332 15.8626 3.69434 15.8907 2.19161 15.8907C1.11294 15.8907 0.2375 15.5558 0.2375 15.1445C0.2375 14.7333 1.11294 14.4 2.19161 14.4C3.9377 14.4 6.80986 14.4345 9.91974 14.4916C9.45952 14.947 9.03225 15.3951 8.6411 15.82Z" fill="#62727D"/>
<path d="M21.4301 12.492C22.2682 12.4711 23.1055 12.5613 23.92 12.7603C22.9481 12.9778 21.9534 13.0765 20.9578 13.0542C21.1679 12.9185 21.333 12.7225 21.4301 12.492Z" fill="#62727D"/>
<path d="M2.79158 13.4625C1.77798 13.4625 0.954687 13.1484 0.954687 12.7605C0.954687 12.3726 1.77798 12.0609 2.79158 12.0609C4.87501 12.0609 8.64989 12.1107 12.4393 12.1959C11.975 12.587 11.5341 12.9741 11.118 13.3532C7.79289 13.4215 4.63245 13.4625 2.79158 13.4625Z" fill="#62727D"/>
<path d="M14.1142 10.8523C10.2405 10.9487 6.04227 11.0073 3.89057 11.0073C2.98941 11.0073 2.26094 10.731 2.26094 10.3888C2.26094 10.0467 2.98941 9.76719 3.89057 9.76719C6.26555 9.76719 11.1376 9.84189 15.3141 9.96076C15.1061 10.1102 14.8972 10.2611 14.6852 10.421C14.4916 10.5639 14.2997 10.7069 14.1142 10.8523Z" fill="#62727D"/>
<path d="M5.72099 8.49925C5.0134 8.49925 4.43594 8.28079 4.43594 8.01253C4.43594 7.74427 5.01019 7.525 5.72099 7.525C8.38271 7.525 15.0282 7.64146 18.4015 7.81093C18.1879 7.94827 17.9742 8.09766 17.7549 8.24464C14.2394 8.39644 8.22368 8.49925 5.72099 8.49925Z" fill="#62727D"/>
<path d="M1.99028 18.2773C0.891543 18.2773 0 17.9344 0 17.5191C0 17.1039 0.891543 16.7609 1.99028 16.7609C3.36531 16.7609 5.42703 16.7818 7.75784 16.818C7.3185 17.3336 6.93863 17.8099 6.61254 18.2372C4.75882 18.2621 3.13561 18.2773 1.99028 18.2773Z" fill="#62727D"/>
<path d="M7.88761 6.11796C7.88761 5.92841 8.21446 5.775 8.61926 5.775C10.6882 5.775 16.998 5.92841 16.998 6.11796C16.998 6.3075 10.6891 6.46653 8.61607 6.46653C8.21449 6.46653 7.88437 6.31152 7.88437 6.12036" fill="#62727D"/>
</svg>
